# xmcd CD database file
#
# Track frame offsets:
#	150
#	32119
#	64540
#	92642
#	127986
#	150776
#	173980
#	207772
#	233783
#
# Disc length: 3242 seconds
#
# Revision: 0
# Processed by: cddbd v1.5.1PL0 Copyright (c) Steve Scherf et al.
# Submitted via: CDex 1.50beta10
#
DISCID=650ca809
DTITLE=Jordi Matas Quintet - All That Matas
DYEAR=2003
DGENRE=Jazz
TTITLE0=Mr. Broken
TTITLE1=All that Matas
TTITLE2=Satam Blues
TTITLE3=Amb La Verita Per Davant
TTITLE4=Els Dies Comptats
TTITLE5=A Garota
TTITLE6=Float Arround
TTITLE7=7 Infierno
TTITLE8=The End Song
EXTD=YEAR: 2003
EXTT0=
EXTT1=
EXTT2=
EXTT3=
EXTT4=
EXTT5=
EXTT6=
EXTT7=
EXTT8=
PLAYORDER=
